<?xml version="1.0" encoding="UTF-8"?>
<svg width="32" height="32" viewBox="0 0 32 32" fill="none" xmlns="http://www.w3.org/2000/svg">
  <!-- 茶杯主体 -->
  <path d="M6 12C6 10.8954 6.89543 10 8 10H20C21.1046 10 22 10.8954 22 12V22C22 24.2091 20.2091 26 18 26H10C7.79086 26 6 24.2091 6 22V12Z" fill="#FF9FBF"/>
  
  <!-- 茶杯把手 -->
  <path d="M22 14H24C25.6569 14 27 15.3431 27 17C27 18.6569 25.6569 20 24 20H22" stroke="#FF9FBF" stroke-width="2.5" stroke-linecap="round"/>
  
  <!-- 茶水波纹 -->
  <path d="M9 15H19" stroke="white" stroke-width="1.5" stroke-linecap="round" opacity="0.6"/>
  <path d="M10 18H18" stroke="white" stroke-width="1.5" stroke-linecap="round" opacity="0.6"/>
  
  <!-- 蒸汽 -->
  <path d="M11 7C11 7 12 5 14 5" stroke="#FF9FBF" stroke-width="1.5" stroke-linecap="round" opacity="0.8"/>
  <path d="M15 8C15 8 16 6 18 6" stroke="#FF9FBF" stroke-width="1.5" stroke-linecap="round" opacity="0.8"/>
</svg>